<?xml version="1.0" ?>
<!-- Uploaded to: SVG Repo, www.svgrepo.com, Generator: SVG Repo Mixer Tools -->
<svg fill="#000000" width="800px" height="800px" viewBox="0 0 64 64" id="Layer_1" version="1.1" xml:space="preserve" xmlns="http://www.w3.org/2000/svg" xmlns:xlink="http://www.w3.org/1999/xlink">
<g>
<path d="M56.1,8.3H7.8c-1.9,0-3.4,1.5-3.4,3.4v41.6c0,1.9,1.5,3.4,3.4,3.4h48.3c1.9,0,3.4-1.5,3.4-3.4V11.6   C59.5,9.8,58,8.3,56.1,8.3z M55.5,52.6h-47V12.3h47V52.6z"/>
<path d="M25.4,44.3c5.1-3,10.3-5.9,15.4-8.9c0.7-0.4,1.5-0.8,2.2-1.3c0.7-0.4,1-1.1,1-1.7c0-0.6-0.2-1.3-1-1.7   c-5.1-3-10.3-5.9-15.4-8.9c-0.7-0.4-1.5-0.8-2.2-1.3c-1.3-0.8-3,0.2-3,1.7c0,5.9,0,11.8,0,17.8c0,0.8,0,1.7,0,2.5   C22.4,44.1,24.1,45.1,25.4,44.3z M38,32.5c-3.9,2.2-7.7,4.5-11.6,6.7c0-4.5,0-8.9,0-13.4C30.2,28,34.1,30.2,38,32.5z"/>
<path d="M11.2,20.7c0.4,0.4,0.9,0.6,1.4,0.6c0.7,0,1.3,0,2,0c0.1,0,0.2,0,0.3,0c0.2,0,0.4,0,0.6-0.1c0.3-0.1,0.6-0.2,0.8-0.5   c0.2-0.1,0.3-0.3,0.3-0.5c0.1-0.1,0.1-0.2,0.2-0.4c0.1-0.2,0.1-0.3,0.1-0.5c0-0.7,0-1.3,0-2c0-0.1,0-0.2,0-0.3c0-0.3,0-0.5-0.2-0.8   c-0.1-0.2-0.2-0.5-0.4-0.6c-0.4-0.4-0.9-0.6-1.4-0.6c-0.7,0-1.3,0-2,0c-0.1,0-0.2,0-0.3,0c-0.3,0-0.5,0-0.8,0.2   c-0.2,0.1-0.5,0.2-0.6,0.4c-0.4,0.4-0.6,0.9-0.6,1.4c0,0.7,0,1.3,0,2c0,0.1,0,0.2,0,0.3c0,0.3,0,0.5,0.2,0.8   C10.9,20.3,11,20.5,11.2,20.7z"/>
<path d="M47.7,20.7c0.4,0.4,0.9,0.6,1.4,0.6c0.7,0,1.3,0,2,0c0.1,0,0.2,0,0.3,0c0.2,0,0.4,0,0.6-0.1c0.3-0.1,0.6-0.2,0.8-0.5   c0.2-0.1,0.3-0.3,0.3-0.5c0.1-0.1,0.1-0.2,0.2-0.4c0.1-0.2,0.1-0.4,0.1-0.5c0-0.7,0-1.3,0-2c0-0.1,0-0.2,0-0.3c0-0.3,0-0.5-0.2-0.8   c-0.1-0.2-0.2-0.5-0.4-0.6c-0.4-0.4-0.9-0.6-1.4-0.6c-0.7,0-1.3,0-2,0c-0.1,0-0.2,0-0.3,0c-0.3,0-0.5,0-0.8,0.2   c-0.2,0.1-0.5,0.2-0.6,0.4c-0.4,0.4-0.6,0.9-0.6,1.4c0,0.7,0,1.3,0,2c0,0.1,0,0.2,0,0.3c0,0.3,0,0.5,0.2,0.8   C47.4,20.3,47.5,20.5,47.7,20.7z"/>
<path d="M11.2,30.1c0.4,0.4,0.9,0.6,1.4,0.6c0.7,0,1.3,0,2,0c0.1,0,0.2,0,0.3,0c0.2,0,0.4,0,0.6-0.1c0.3-0.1,0.6-0.2,0.8-0.5   c0.2-0.1,0.3-0.3,0.3-0.5c0.1-0.1,0.1-0.2,0.2-0.4c0.1-0.2,0.1-0.3,0.1-0.5c0-0.7,0-1.3,0-2c0-0.1,0-0.2,0-0.3c0-0.3,0-0.5-0.2-0.8   c-0.1-0.2-0.2-0.5-0.4-0.6c-0.4-0.4-0.9-0.6-1.4-0.6c-0.7,0-1.3,0-2,0c-0.1,0-0.2,0-0.3,0c-0.3,0-0.5,0-0.8,0.2   c-0.2,0.1-0.5,0.2-0.6,0.4c-0.4,0.4-0.6,0.9-0.6,1.4c0,0.7,0,1.3,0,2c0,0.1,0,0.2,0,0.3c0,0.3,0,0.5,0.2,0.8   C10.9,29.8,11,30,11.2,30.1z"/>
<path d="M47.7,30.1c0.4,0.4,0.9,0.6,1.4,0.6c0.7,0,1.3,0,2,0c0.1,0,0.2,0,0.3,0c0.2,0,0.4,0,0.6-0.1c0.3-0.1,0.6-0.2,0.8-0.5   c0.2-0.1,0.3-0.3,0.3-0.5c0.1-0.1,0.1-0.2,0.2-0.4c0.1-0.2,0.1-0.4,0.1-0.5c0-0.7,0-1.3,0-2c0-0.1,0-0.2,0-0.3c0-0.3,0-0.5-0.2-0.8   c-0.1-0.2-0.2-0.5-0.4-0.6c-0.4-0.4-0.9-0.6-1.4-0.6c-0.7,0-1.3,0-2,0c-0.1,0-0.2,0-0.3,0c-0.3,0-0.5,0-0.8,0.2   c-0.2,0.1-0.5,0.2-0.6,0.4c-0.4,0.4-0.6,0.9-0.6,1.4c0,0.7,0,1.3,0,2c0,0.1,0,0.2,0,0.3c0,0.3,0,0.5,0.2,0.8   C47.4,29.8,47.5,30,47.7,30.1z"/>
<path d="M11.2,39.6c0.4,0.4,0.9,0.6,1.4,0.6c0.7,0,1.3,0,2,0c0.1,0,0.2,0,0.3,0c0.2,0,0.4,0,0.6-0.1c0.3-0.1,0.6-0.2,0.8-0.5   c0.2-0.1,0.3-0.3,0.3-0.5c0.1-0.1,0.1-0.2,0.2-0.4c0.1-0.2,0.1-0.3,0.1-0.5c0-0.7,0-1.3,0-2c0-0.1,0-0.2,0-0.3c0-0.3,0-0.5-0.2-0.8   c-0.1-0.2-0.2-0.5-0.4-0.6c-0.4-0.4-0.9-0.6-1.4-0.6c-0.7,0-1.3,0-2,0c-0.1,0-0.2,0-0.3,0c-0.3,0-0.5,0-0.8,0.2   c-0.2,0.1-0.5,0.2-0.6,0.4c-0.4,0.4-0.6,0.9-0.6,1.4c0,0.7,0,1.3,0,2c0,0.1,0,0.2,0,0.3c0,0.3,0,0.5,0.2,0.8   C10.9,39.2,11,39.4,11.2,39.6z"/>
<path d="M11.2,49.6c0.4,0.4,0.9,0.6,1.4,0.6c0.7,0,1.3,0,2,0c0.1,0,0.2,0,0.3,0c0.2,0,0.4,0,0.6-0.1c0.3-0.1,0.6-0.2,0.8-0.5   c0.2-0.1,0.3-0.3,0.3-0.5c0.1-0.1,0.1-0.2,0.2-0.4c0.1-0.2,0.1-0.3,0.1-0.5c0-0.7,0-1.3,0-2c0-0.1,0-0.2,0-0.3c0-0.3,0-0.5-0.2-0.8   c-0.1-0.2-0.2-0.5-0.4-0.6c-0.4-0.4-0.9-0.6-1.4-0.6c-0.7,0-1.3,0-2,0c-0.1,0-0.2,0-0.3,0c-0.3,0-0.5,0-0.8,0.2   c-0.2,0.1-0.5,0.2-0.6,0.4c-0.4,0.4-0.6,0.9-0.6,1.4c0,0.7,0,1.3,0,2c0,0.1,0,0.2,0,0.3c0,0.3,0,0.5,0.2,0.8   C10.9,49.2,11,49.4,11.2,49.6z"/>
<path d="M47.7,40.2c0.4,0.4,0.9,0.6,1.4,0.6c0.7,0,1.3,0,2,0c0.1,0,0.2,0,0.3,0c0.2,0,0.4,0,0.6-0.1c0.3-0.1,0.6-0.2,0.8-0.5   c0.2-0.1,0.3-0.3,0.3-0.5c0.1-0.1,0.1-0.2,0.2-0.4c0.1-0.2,0.1-0.4,0.1-0.5c0-0.7,0-1.3,0-2c0-0.1,0-0.2,0-0.3c0-0.3,0-0.5-0.2-0.8   c-0.1-0.2-0.2-0.5-0.4-0.6c-0.4-0.4-0.9-0.6-1.4-0.6c-0.7,0-1.3,0-2,0c-0.1,0-0.2,0-0.3,0c-0.3,0-0.5,0-0.8,0.2   c-0.2,0.1-0.5,0.2-0.6,0.4c-0.4,0.4-0.6,0.9-0.6,1.4c0,0.7,0,1.3,0,2c0,0.1,0,0.2,0,0.3c0,0.3,0,0.5,0.2,0.8   C47.4,39.8,47.5,40,47.7,40.2z"/>
<path d="M47.7,49.6c0.4,0.4,0.9,0.6,1.4,0.6c0.7,0,1.3,0,2,0c0.1,0,0.2,0,0.3,0c0.2,0,0.4,0,0.6-0.1c0.3-0.1,0.6-0.2,0.8-0.5   c0.2-0.1,0.3-0.3,0.3-0.5c0.1-0.1,0.1-0.2,0.2-0.4c0.1-0.2,0.1-0.4,0.1-0.5c0-0.7,0-1.3,0-2c0-0.1,0-0.2,0-0.3c0-0.3,0-0.5-0.2-0.8   c-0.1-0.2-0.2-0.5-0.4-0.6c-0.4-0.4-0.9-0.6-1.4-0.6c-0.7,0-1.3,0-2,0c-0.1,0-0.2,0-0.3,0c-0.3,0-0.5,0-0.8,0.2   c-0.2,0.1-0.5,0.2-0.6,0.4c-0.4,0.4-0.6,0.9-0.6,1.4c0,0.7,0,1.3,0,2c0,0.1,0,0.2,0,0.3c0,0.3,0,0.5,0.2,0.8   C47.4,49.2,47.5,49.4,47.7,49.6z"/>
</g>
</svg>